# xmcd
#
# Track frame offsets: 
#        150
#        21472
#        38517
#        54507
#        75362
#        86810
#        106827
#        124210
#        143755
#        158315
#        178065
#        199062
#        222800
#        240422
#
# Disc length: 3408 seconds
#
# Revision: 0
# Processed by: cddbd v1.4PL0 Copyright (c) Steve Scherf et al.
# Submitted via: ExactAudioCopy v0.90b4
#
DISCID=ac0d4e0e
DTITLE=Gladys Knight - Soul Sisters
DYEAR=1989
DGENRE=Soul
TTITLE0=Midnight Train To Georgia
TTITLE1=Best Thing that Ever happened To Me
TTITLE2=I've Got To Use My Imagination
TTITLE3=The Way We Were - Try To Remember
TTITLE4=Part Time Love
TTITLE5=Where Peaceful Waters Flow
TTITLE6=So Sad The Song
TTITLE7=Pipe Dreams
TTITLE8=Baby Don't Change Your Mind
TTITLE9=I Can See Clearly Now
TTITLE10=Make Yours A Happy home
TTITLE11=Home Is Where The Heart Is
TTITLE12=Georgia On My Mind
TTITLE13=Come Back And Finish What You Started
EXTD=
EXTT0=
EXTT1=
EXTT2=
EXTT3=
EXTT4=
EXTT5=
EXTT6=
EXTT7=
EXTT8=
EXTT9=
EXTT10=
EXTT11=
EXTT12=
EXTT13=
PLAYORDER=
